<svg xmlns="http://www.w3.org/2000/svg" viewBox="0 0 64 64" id="pizza-slice"><path fill="#d8e0eb" d="M45.94,16.7097a1.19509,1.19509,0,0,1,0,1.68l-1.99,1.99.35.35a2.5,2.5,0,0,1-1.76,4.27,2.53256,2.53256,0,0,1-1.77-.73l-3.54-3.54a2.50316,2.50316,0,0,1,3.54-3.54l.35.36,1.99-1.99a1.17709,1.17709,0,0,1,1.68,0Z"></path><path fill="#ff7255" d="M37.94 49.6797h.01c-1.93 4.63-3.69 8.9-5.03 12.34a1.54652 1.54652 0 01-2.88 0q-2.64-6.825-5.3-13.65a7.661 7.661 0 01.96-1.17 7.48409 7.48409 0 0110.6 0A7.30489 7.30489 0 0137.94 49.6797zM46 27.7897a5.65738 5.65738 0 011.01.08c-1.72 4.26-3.63 8.85-5.53 13.38a6.25862 6.25862 0 01-.78-.67 7.48827 7.48827 0 015.3-12.79zM31.34 16.1997a7.472 7.472 0 11-5.29-2.2A7.49328 7.49328 0 0131.34 16.1997z"></path><path fill="#d8e0eb" d="M32.77,32.7297a2.50316,2.50316,0,0,1-1.77,4.27h-.5v2.81a1.18646,1.18646,0,0,1-1.19,1.19H27.69a1.18646,1.18646,0,0,1-1.19-1.19v-2.81H26a2.5,2.5,0,1,1,0-5h5A2.502,2.502,0,0,1,32.77,32.7297Z"></path><path fill="#ffcfa0" d="M11.11,13.2597c-.47.12-.92.25-1.36.38a2.54651,2.54651,0,0,1-3.25-2.47v-4.09a2.57279,2.57279,0,0,1,1.78-2.46,79.48684,79.48684,0,0,1,47.44,0,2.57279,2.57279,0,0,1,1.78,2.46v4.09a2.54651,2.54651,0,0,1-3.25,2.47c-.57-.17-1.16-.33-1.78-.5a79.37034,79.37034,0,0,0-41.36.12Z"></path><path fill="#ffcf44" d="M26.05,28.9997a7.49533,7.49533,0,1,0-7.5-7.5A7.461,7.461,0,0,0,26.05,28.9997Zm4.95,3H26a2.5,2.5,0,1,0,0,5h.5v2.81a1.18646,1.18646,0,0,0,1.19,1.19h1.62a1.18646,1.18646,0,0,0,1.19-1.19v-2.81H31a2.5,2.5,0,1,0,0-5Zm5.3,15.2a7.48409,7.48409,0,0,0-10.6,0,7.661,7.661,0,0,0-.96,1.17q-6.795-17.55-13.63-35.11a79.37034,79.37034,0,0,1,41.36-.12v.01c-1.09,3.6-3.09,8.84-5.46,14.72a5.65738,5.65738,0,0,0-1.01-.08,7.48827,7.48827,0,0,0-5.3,12.79,6.25862,6.25862,0,0,0,.78.67c-1.19,2.87-2.39,5.71-3.53,8.43h-.01A7.30489,7.30489,0,0,0,36.3,47.1997Zm9.64-28.81a1.19509,1.19509,0,0,0,0-1.68l-1.15-1.15a1.17709,1.17709,0,0,0-1.68,0l-1.99,1.99-.35-.36a2.50316,2.50316,0,1,0-3.54,3.54l3.54,3.54a2.4987,2.4987,0,0,0,3.53,0,2.49872,2.49872,0,0,0,0-3.54l-.35-.35Z"></path><path fill="#f75843" d="M43.51953 33.791a1 1 0 01-.00976-2h.00976a1 1 0 010 2zM23.56738 25.001a1 1 0 01-.00976-2h.00976a1 1 0 010 2zM28.56738 23.001a1 1 0 01-.00976-2h.00976a1 1 0 010 2zM24.56738 20.001a1 1 0 01-.00976-2h.00976a1 1 0 010 2zM28.51953 56.001a1 1 0 01-.00976-2h.00976a1 1 0 110 2zM33.51953 54.001a1 1 0 01-.00976-2h.00976a1 1 0 010 2zM29.51953 51.001a1 1 0 01-.00976-2h.00976a1 1 0 110 2z"></path></svg>