<svg xmlns="http://www.w3.org/2000/svg" viewBox="0 0 64 64" id="pizza"><path fill="#da9b37" d="M10.34 47.77L7.5 50.61A26.78 26.78 0 0 1 .89 25.16l3.85 1.1a20.83 20.83 0 0 0-.52 2.59A22.74 22.74 0 0 0 4 33.21c0 .21 0 .41 0 .62 0 .62.12 1.23.23 1.84a18 18 0 0 0 .52 2.42c.11.4.23.8.37 1.2s.27.78.42 1.17.32.77.5 1.15h0a21.89 21.89 0 0 0 2.3 3.88c.45.61.94 1.21 1.46 1.79zM20.11 10.17h0c-.42.13-.85.27-1.26.42l-1 .4 0 0a4.32 4.32 0 0 0-.45.19l-.11 0a8 8 0 0 0-.78.38l-.21.11a5.57 5.57 0 0 0-.58.32.24.24 0 0 0-.11.06c-.21.11-.42.23-.62.36s-.58.35-.86.54l-.38.27-.05 0c-.24.17-.48.33-.71.51l-.2.16c-.35.27-.7.56-1 .86s-.71.64-1.05 1-.55.57-.81.86l-.1.11L9.66 17c-.29.33-.58.68-.85 1s-.53.71-.78 1.07l-.09.13c-.21.3-.41.62-.6.93-.07.1-.13.21-.19.31a.47.47 0 0 0-.05.1c-.17.28-.32.55-.46.83a2.39 2.39 0 0 0-.12.22c-.19.38-.38.76-.55 1.15s-.34.8-.5 1.2c0 0 0 0 0 .06-.16.42-.31.85-.44 1.28L1.17 24.17A26.81 26.81 0 0 1 19 6.33z"></path><path fill="#fec133" d="M43,15.85,27.24,31.59,27.09,31,21.1,9.9a22.8,22.8,0,0,1,21.51,5.59C42.74,15.6,42.87,15.73,43,15.85Z"></path><path fill="#da9b37" d="M45.82 13L43 15.85c-.12-.12-.25-.25-.38-.36A22.8 22.8 0 0 0 21.1 9.9L20 6.05a26.77 26.77 0 0 1 25.44 6.61C45.57 12.77 45.7 12.9 45.82 13zM52.52 39.79v0A26.81 26.81 0 0 1 34.67 57.67l-1.09-3.84h0l.86-.28a22.47 22.47 0 0 0 4.18-2c.26-.15.51-.31.76-.48A17.35 17.35 0 0 0 40.89 50l.72-.59c.47-.4.93-.83 1.38-1.27s.68-.69 1-1 .42-.48.61-.72.25-.31.37-.47a22.18 22.18 0 0 0 3-5.26c.09-.2.17-.41.25-.62s.16-.43.22-.65.15-.43.21-.64z"></path><path fill="#fec133" d="M32.58,54.1c-.48.12-1,.23-1.44.32l-.61.12h-.11l-.73.1-.84.09h-.27l-.95.06c-.57,0-1.14,0-1.71,0-.31,0-.62,0-.92-.06l-.3,0-.42,0c-.28,0-.57-.06-.85-.11l-.84-.14c-.35-.06-.7-.14-1.05-.22l-.7-.18c-.23-.06-.46-.12-.68-.2h0l-.28-.09c-.27-.08-.54-.17-.8-.27l-.51-.19-.25-.09L18,53.07c-.28-.11-.55-.23-.82-.36a16.4,16.4,0,0,1-1.56-.8,2.48,2.48,0,0,1-.31-.18c-.3-.17-.6-.35-.9-.55L14.24,51,14,50.89c-.22-.14-.43-.29-.64-.45L13,50.18l-.33-.25-.61-.5-.36-.32c-.16-.13-.32-.28-.47-.42l-.2-.19L26.58,33Z"></path><path fill="#da9b37" d="M33.68,58A26.76,26.76,0,0,1,8.23,51.33l2.83-2.83c.22.21.44.42.67.61l.36.32c.31.26.62.51.94.75l.35.26c.21.16.42.31.64.45l.22.15q.54.36,1.11.69a2.48,2.48,0,0,0,.31.18,16.4,16.4,0,0,0,1.56.8c.27.13.54.25.82.36s.34.15.52.21l.51.19c.26.1.53.19.8.27l.28.09h0c.23.08.45.14.68.2l.7.18c.35.08.7.16,1.05.22s.56.1.84.14a8.24,8.24,0,0,0,.85.11l.42,0,.3,0c.3,0,.61,0,.92.06.57,0,1.14,0,1.71,0l.95-.06h.27l.84-.09.73-.1.72-.13c.48-.09,1-.2,1.44-.32Z"></path><path fill="#fec133" d="M4.74 26.26l21.12 6L10.34 47.77l-.46-.48c-.52-.58-1-1.18-1.46-1.79a23.86 23.86 0 0 1-2.3-3.88h0c-.18-.38-.34-.76-.5-1.15s-.29-.78-.42-1.17-.26-.8-.37-1.2a21.68 21.68 0 0 1-.52-2.42c-.11-.61-.18-1.22-.23-1.84 0-.21 0-.41 0-.62a22.74 22.74 0 0 1 .18-4.36A20.83 20.83 0 0 1 4.74 26.26zM26.09 31.25L5 25.26c.13-.43.28-.86.44-1.28 0 0 0 0 0-.06.16-.4.32-.8.5-1.2s.36-.77.55-1.15a2.39 2.39 0 0 1 .12-.22c.14-.28.29-.55.46-.83a4.36 4.36 0 0 1 .24-.41c.19-.31.39-.63.6-.93L8 19.05c.25-.36.5-.72.78-1.07s.56-.7.85-1l.12-.13.1-.11c.26-.29.53-.58.81-.86s.69-.67 1.05-1 .68-.59 1-.86l.2-.16c.23-.18.47-.34.71-.51l.05 0 .38-.27c.28-.19.57-.37.86-.54s.41-.25.62-.36a.24.24 0 0 1 .11-.06 5.57 5.57 0 0 1 .58-.32l.21-.11.78-.38.11 0a4.32 4.32 0 0 1 .45-.19l0 0 1-.4c.41-.15.84-.29 1.26-.42zM48.66 38.73c-.06.21-.13.43-.21.64s-.14.43-.22.65-.16.42-.25.62a22.18 22.18 0 0 1-3 5.26c-.12.16-.24.32-.37.47s-.4.48-.61.72-.64.71-1 1h0a18 18 0 0 1-1.38 1.26l-.72.59a17.35 17.35 0 0 1-1.51 1.08c-.25.17-.5.33-.76.48a22.47 22.47 0 0 1-4.18 2l-.86.28-6-21.08z"></path><path fill="#c22038" d="M17.56 33.59a2.1 2.1 0 1 1-3 0A2.1 2.1 0 0 1 17.56 33.59zM14.54 20.42a2.1 2.1 0 1 1-3 0A2.09 2.09 0 0 1 14.54 20.42zM35.25 14.87a2.1 2.1 0 1 1-3 0A2.1 2.1 0 0 1 35.25 14.87zM38.59 41.19a2.1 2.1 0 1 1-3 0A2.09 2.09 0 0 1 38.59 41.19zM26.23 47.85a2.1 2.1 0 1 1-3 0A2.1 2.1 0 0 1 26.23 47.85z"></path><path fill="#aa7c4c" d="M16.76 49.23a1 1 0 0 1-.45-1.89l1.57-.79a1 1 0 1 1 .91 1.78l-1.58.8A1 1 0 0 1 16.76 49.23zM8.6 38.18a1 1 0 0 1-.89-.55 1 1 0 0 1 .44-1.35l1.57-.79a1 1 0 1 1 .91 1.78l-1.58.8A1 1 0 0 1 8.6 38.18z"></path><path fill="#35302d" d="M12 43.1a1 1 0 0 1-.57-.18l-1.4-1a1 1 0 0 1-.25-1.39 1 1 0 0 1 1.4-.25l1.39 1a1 1 0 0 1 .25 1.39A1 1 0 0 1 12 43.1zM7.73 32.79A1 1 0 0 1 7.08 31l1.27-1.09a1 1 0 1 1 1.31 1.51l-1.28 1.1A1 1 0 0 1 7.73 32.79zM24.5 40.14a1 1 0 0 1-.65-1.76l1.27-1.1a1 1 0 1 1 1.31 1.51l-1.28 1.1A1 1 0 0 1 24.5 40.14zM35.31 50.51a1 1 0 0 1-.66-1.75l1.28-1.1a1 1 0 1 1 1.3 1.51L36 50.27A1 1 0 0 1 35.31 50.51z"></path><path fill="#aa7c4c" d="M29.3,25.5a1,1,0,0,1-.83-.44,1,1,0,0,1,.27-1.39l1.41-1a1,1,0,1,1,1.12,1.65l-1.41,1A1,1,0,0,1,29.3,25.5Z"></path><path fill="#638337" d="M26.43,20.85a1,1,0,0,1-.83-.44A1,1,0,0,1,25.86,19l1.42-.95a1,1,0,1,1,1.12,1.65l-1.41,1A1,1,0,0,1,26.43,20.85Z"></path><path fill="#35302d" d="M21.23,28.57a1,1,0,0,1-.83-.44,1,1,0,0,1,.27-1.38l1.41-1a1,1,0,1,1,1.13,1.65l-1.42,1A1,1,0,0,1,21.23,28.57Z"></path><path fill="#aa7c4c" d="M20.58,23.48a1,1,0,0,1-.51-.14l-1.49-.88a1,1,0,1,1,1-1.72l1.49.88a1,1,0,0,1-.51,1.86Z"></path><path fill="#638337" d="M17.11,17.26a1,1,0,0,1-.78-.37,1,1,0,0,1,.14-1.41l1.3-1.07A1,1,0,1,1,19,16L17.74,17A1,1,0,0,1,17.11,17.26Z"></path><path fill="#35302d" d="M27.71,14.62a1,1,0,0,1-.48-.13l-1.53-.84a1,1,0,0,1-.39-1.36,1,1,0,0,1,1.36-.39l1.53.84a1,1,0,0,1-.49,1.88Z"></path><path fill="#fec133" d="M53.3,12.85a22.84,22.84,0,0,1,5.83,22.4L37.16,29h0Z"></path><path fill="#da9b37" d="M56.14,10A26.82,26.82,0,0,1,63,36.34l-3.85-1.09a22.84,22.84,0,0,0-5.83-22.4Z"></path><path fill="#c22038" d="M52.8,23.19a2.1,2.1,0,1,1-3,0A2.12,2.12,0,0,1,52.8,23.19Z"></path><path fill="#35302d" d="M43.38,28.07a1,1,0,0,1-1-.77,1,1,0,0,1,.74-1.2l1.92-.46a1,1,0,0,1,1.2.74,1,1,0,0,1-.74,1.21L43.62,28A1,1,0,0,1,43.38,28.07Z"></path><path fill="#aa7c4c" d="M52.57,19.75A1,1,0,0,1,52,17.91L53.46,17a1,1,0,0,1,1.09,1.68l-1.44.93A1,1,0,0,1,52.57,19.75Z"></path><path fill="#638337" d="M56.56 30.69a1 1 0 0 1-.4-.09l-1.65-.72a1 1 0 1 1 .8-1.83l1.65.72a1 1 0 0 1 .52 1.32A1 1 0 0 1 56.56 30.69zM33.81 38.75a1 1 0 0 1-.45-.11l-1.58-.79a1 1 0 0 1-.44-1.35 1 1 0 0 1 1.34-.44l1.58.8a1 1 0 0 1-.45 1.89z"></path><path fill="#aa7c4c" d="M42.05,42.27a1,1,0,0,1-.1-2l2.17-.2a1,1,0,0,1,.19,2l-2.17.21Z"></path><path fill="#638337" d="M22.88,44.69a1,1,0,0,1-.37-.08l-1.69-.68a1,1,0,1,1,.74-1.85l1.69.68a1,1,0,0,1,.56,1.3A1,1,0,0,1,22.88,44.69Z"></path></svg>